<!--?xml version="1.0" encoding="utf-8"?-->
<!-- Generator: Adobe Illustrator 18.1.1, SVG Export Plug-In . SVG Version: 6.00 Build 0)  -->

<svg version="1.1" id="_x32_" xmlns="http://www.w3.org/2000/svg" xmlns:xlink="http://www.w3.org/1999/xlink" x="0px" y="0px" viewBox="0 0 512 512" style="width: 256px; height: 256px; opacity: 1;" xml:space="preserve">
<style type="text/css">
	.st0{fill:#4B4B4B;}
</style>
<g>
	<path class="st0" d="M204.129,79.606l34.32-53.045C165.311-5.706,87.121-6.602,26.287,21.46l3.943,16.801
		C87.04,37.96,147.027,51.536,204.129,79.606z" style="fill: rgb(0, 0, 0);"></path>
	<path class="st0" d="M397.73,276.05l16.932-3.308c0.668-66.978-32.186-137.949-91.586-191.45l-34.336,53.053
		C337.76,174.931,374.703,224.089,397.73,276.05z" style="fill: rgb(0, 0, 0);"></path>
	<path class="st0" d="M266.104,138.974l46.558-71.965c3.976-6.136,2.217-14.324-3.911-18.31l-34.679-22.44
		c-6.143-3.96-14.34-2.208-18.317,3.928l-46.575,71.956L266.104,138.974z" style="fill: rgb(0, 0, 0);"></path>
	<path class="st0" d="M204.732,120.844L2.494,433.416c-4.661,7.22-2.608,16.867,4.645,21.544l19.979,12.924
		c7.219,4.677,16.867,2.599,21.544-4.62L250.9,150.715L204.732,120.844z" style="fill: rgb(0, 0, 0);"></path>
	<path class="st0" d="M338.036,442.884c-3.243-9.737-12.353-16.304-22.62-16.304h-44.114c-10.25,0-19.376,6.568-22.619,16.304
		l-17.894,53.664c-1.092,3.268-0.538,6.87,1.483,9.664c2.004,2.795,5.264,4.457,8.703,4.457h104.769
		c3.455,0,6.698-1.662,8.718-4.457c2.004-2.794,2.559-6.396,1.467-9.664L338.036,442.884z" style="fill: rgb(0, 0, 0);"></path>
	<path class="st0" d="M481.232,442.884c-3.226-9.737-12.353-16.304-22.62-16.304h-44.114c-10.25,0-19.376,6.568-22.619,16.304
		l-17.893,53.664c-1.092,3.268-0.538,6.87,1.483,9.664c2.004,2.795,5.264,4.457,8.702,4.457H488.94c3.455,0,6.698-1.662,8.718-4.457
		c2.005-2.794,2.559-6.396,1.467-9.664L481.232,442.884z" style="fill: rgb(0, 0, 0);"></path>
	<path class="st0" d="M387.024,325.241h-44.131c-10.267,0-19.376,6.567-22.619,16.296l-17.877,53.672
		c-1.092,3.268-0.554,6.87,1.45,9.664c2.037,2.795,5.264,4.457,8.718,4.457H417.35c3.438,0,6.682-1.662,8.703-4.457
		c2.02-2.794,2.558-6.396,1.466-9.664l-17.877-53.672C406.383,331.808,397.274,325.241,387.024,325.241z" style="fill: rgb(0, 0, 0);"></path>
	<path class="st0" d="M265.404,333.421h3.406c4.547-36.381,19.278-51.113,55.652-55.66v-3.414
		c-36.357-4.539-51.105-19.27-55.652-55.652h-3.406c-4.547,36.382-19.279,51.114-55.669,55.668v3.398
		C246.124,282.308,260.857,297.04,265.404,333.421z" style="fill: rgb(0, 0, 0);"></path>
	<path class="st0" d="M442.61,136.414h2.476c3.308-26.457,14.032-37.172,40.48-40.48v-2.486c-26.449-3.3-37.172-14.015-40.48-40.472
		h-2.476c-3.308,26.457-14.015,37.172-40.481,40.489v2.469C428.595,99.242,439.302,109.958,442.61,136.414z" style="fill: rgb(0, 0, 0);"></path>
	<path class="st0" d="M471.52,300.046h-2.477c-3.308,26.457-14.015,37.172-40.48,40.489v2.469
		c26.464,3.308,37.172,14.022,40.48,40.48h2.477c3.308-26.457,14.032-37.172,40.48-40.48v-2.486
		C485.551,337.218,474.828,326.503,471.52,300.046z" style="fill: rgb(0, 0, 0);"></path>
</g>
</svg>
