<!--?xml version="1.0" encoding="utf-8"?-->
<!-- Generator: Adobe Illustrator 18.1.1, SVG Export Plug-In . SVG Version: 6.00 Build 0)  -->

<svg version="1.1" id="_x32_" xmlns="http://www.w3.org/2000/svg" xmlns:xlink="http://www.w3.org/1999/xlink" x="0px" y="0px" viewBox="0 0 512 512" style="width: 256px; height: 256px; opacity: 1;" xml:space="preserve">
<style type="text/css">
	.st0{fill:#4B4B4B;}
</style>
<g>
	<path class="st0" d="M300.052,92.714l62.157,16.497c1.622,0.33,2.938,1.655,3.312,3.285l16.386,62.158
		c0.442,1.826,2.047,3.107,3.914,3.107c1.885,0,3.474-1.282,3.898-3.107l16.412-62.158c0.348-1.63,1.673-2.955,3.294-3.285
		l62.166-16.497c1.817-0.34,3.108-1.961,3.108-3.829c0-1.885-1.29-3.472-3.108-3.838L409.424,68.56
		c-1.621-0.348-2.946-1.655-3.294-3.285L389.718,3.116C389.294,1.308,387.705,0,385.82,0c-1.867,0-3.472,1.308-3.914,3.116
		l-16.386,62.158c-0.374,1.63-1.69,2.937-3.312,3.285l-62.157,16.488c-1.834,0.365-3.108,1.953-3.108,3.838
		C296.944,90.753,298.218,92.374,300.052,92.714z" style="fill: rgb(0, 0, 0);"></path>
	<path class="st0" d="M475.444,326.546c2.649-6.385,3.974-12.803,3.974-19.392c0-6.588-1.325-13.007-3.974-19.391
		c-2.632-6.376-6.588-12.702-11.869-18.874c-10.528-12.353-26.362-24.019-46.34-33.885c-39.938-19.799-96.228-32.398-158.471-32.364
		c-40.847,0-79.13,5.382-111.911,14.713c-32.79,9.314-60.06,22.636-78.875,37.995c-12.574,10.214-21.302,21.267-25.903,32.416
		c-2.641,6.384-3.966,12.803-3.966,19.391c0,6.589,1.324,13.007,3.966,19.392c2.64,6.368,6.596,12.693,11.869,18.865
		c10.545,12.371,26.371,24.019,46.34,33.894c39.938,19.808,96.238,32.399,158.48,32.374c40.855,0,79.129-5.391,111.911-14.73
		c32.789-9.314,60.068-22.627,78.874-37.978C462.114,348.739,470.86,337.686,475.444,326.546z M378.595,313.241l-37.553,9.959
		c-0.993,0.196-1.791,1.002-2.012,2.004l-9.891,37.527c-0.264,1.104-1.222,1.885-2.36,1.885c-1.13,0-2.097-0.781-2.36-1.885
		l-9.899-37.527c-0.23-1.002-1.019-1.808-2.013-2.004l-37.536-9.959c-1.112-0.221-1.893-1.197-1.893-2.318
		c0-1.137,0.781-2.106,1.893-2.326l37.536-9.952c0.994-0.237,1.783-0.993,2.013-1.986l9.899-37.552
		c0.263-1.104,1.231-1.885,2.36-1.885c1.138,0,2.097,0.781,2.36,1.885l9.891,37.552c0.221,0.994,1.019,1.749,2.012,1.986
		l37.553,9.952c1.087,0.22,1.876,1.188,1.876,2.326C380.472,312.044,379.682,313.02,378.595,313.241z" style="fill: rgb(0, 0, 0);"></path>
	<path class="st0" d="M81.604,175.333l11.7,44.413c0.323,1.316,1.47,2.225,2.802,2.225c1.341,0,2.48-0.908,2.793-2.225
		l11.708-44.413c0.246-1.171,1.205-2.113,2.368-2.36l44.421-11.767c1.299-0.271,2.225-1.443,2.225-2.768
		c0-1.325-0.926-2.462-2.225-2.734l-44.421-11.784c-1.164-0.255-2.122-1.172-2.368-2.344L98.899,97.138
		c-0.314-1.29-1.452-2.208-2.793-2.208c-1.333,0-2.48,0.917-2.802,2.208l-11.7,44.438c-0.28,1.172-1.205,2.089-2.377,2.344
		l-44.413,11.784c-1.325,0.272-2.233,1.409-2.233,2.734c0,1.324,0.908,2.496,2.233,2.768l44.413,11.767
		C80.399,173.22,81.325,174.162,81.604,175.333z" style="fill: rgb(0, 0, 0);"></path>
	<path class="st0" d="M38.109,367.563v40.006c0,6.597,1.324,13.025,3.966,19.41c2.64,6.368,6.596,12.692,11.869,18.874
		c2.224,2.589,4.721,5.153,7.395,7.675v-64.026c-1.749-1.307-3.447-2.623-5.103-3.956C49.35,379.925,43.263,373.922,38.109,367.563z
		" style="fill: rgb(0, 0, 0);"></path>
	<path class="st0" d="M79.915,468.122c6.198,4.067,12.99,7.964,20.368,11.614c3.166,1.58,6.47,3.073,9.823,4.534v-68.076
		c-10.842-4.381-20.945-9.245-30.191-14.552V468.122z" style="fill: rgb(0, 0, 0);"></path>
	<path class="st0" d="M128.7,422.979v68.22h-1.096c13.237,4.729,27.594,8.78,42.893,12.014v-69.314
		c-9.916-1.995-19.528-4.288-28.73-6.903C137.318,425.721,132.954,424.388,128.7,422.979z" style="fill: rgb(0, 0, 0);"></path>
	<path class="st0" d="M189.083,506.566c19.121,3.09,39.344,5.008,60.383,5.434v-69.731c-20.928-0.408-41.153-2.148-60.383-5.12
		V506.566z" style="fill: rgb(0, 0, 0);"></path>
	<path class="st0" d="M268.06,511.949c21.904-0.424,42.91-2.496,62.709-5.799v-69.314c-19.909,3.158-40.94,5.052-62.709,5.476
		V511.949z" style="fill: rgb(0, 0, 0);"></path>
	<path class="st0" d="M349.346,502.669c7.319-1.596,14.468-3.337,21.328-5.29c7.106-2.02,13.932-4.228,20.486-6.605v-68.585
		c-13.109,4.424-27.101,8.21-41.815,11.25V502.669z" style="fill: rgb(0, 0, 0);"></path>
	<path class="st0" d="M409.738,415.227v68.042c11.284-5.095,21.404-10.698,30.2-16.727v-66.257c-4.61,2.717-9.424,5.34-14.458,7.844
		C420.445,410.617,415.171,412.977,409.738,415.227z" style="fill: rgb(0, 0, 0);"></path>
	<path class="st0" d="M457.411,388.534h1.104v62.778c7.836-7.871,13.533-16.081,16.929-24.333c2.649-6.385,3.974-12.812,3.974-19.41
		v-39.989c-0.57,0.696-1.13,1.393-1.716,2.08C471.955,376.376,465.12,382.65,457.411,388.534z" style="fill: rgb(0, 0, 0);"></path>
</g>
</svg>
