<?xml version="1.0" encoding="UTF-8"?>
<svg width="111px" height="28px" viewBox="0 0 111 28" version="1.1" xmlns="http://www.w3.org/2000/svg" xmlns:xlink="http://www.w3.org/1999/xlink">
    <!-- Generator: Sketch 52.2 (67145) - http://www.bohemiancoding.com/sketch -->
    <title>Ataix-Logo</title>
    <desc>Created with Sketch.</desc>
    <g id="Dashboard-grid" stroke="none" stroke-width="1" fill="none" fill-rule="evenodd">
        <g id="Ataix-Logo">
            <g id="Group" fill="#ffffff">
                <path d="M35.4320988,5.5308642 C35.6229136,5.5308642 35.7777778,5.6857284 35.7777778,5.87654321 L35.7777778,27.308642 C35.7777778,27.4994568 35.6229136,27.654321 35.4320988,27.654321 L33.3580247,27.654321 C33.1672099,27.654321 33.0123457,27.4994568 33.0123457,27.308642 L33.0123457,5.87654321 C33.0123457,5.6857284 33.1672099,5.5308642 33.3580247,5.5308642 L35.4320988,5.5308642 Z M44.7654321,0 C44.9562469,0 45.1111111,0.154864198 45.1111111,0.345679012 L45.1111111,2.41975309 C45.1111111,2.6105679 44.9562469,2.7654321 44.7654321,2.7654321 L24.0246914,2.7654321 C23.8338765,2.7654321 23.6790123,2.6105679 23.6790123,2.41975309 L23.6790123,0.345679012 C23.6790123,0.154864198 23.8338765,0 24.0246914,0 L44.7654321,0 Z M25.0399506,27.2156543 C25.1014815,27.4361975 24.9359012,27.654321 24.7070617,27.654321 L22.4127901,27.654321 C22.2720988,27.654321 22.1452346,27.5689383 22.0923457,27.4382716 L18.8277531,19.3580247 L9.66311111,19.3580247 C9.41802469,19.3580247 9.25071605,19.1101728 9.34266667,18.882716 L10.1805926,16.808642 C10.2334815,16.6779753 10.36,16.5925926 10.501037,16.5925926 L17.7105185,16.5925926 L12.8181235,4.48449383 C12.7016296,4.19619753 12.2937284,4.19619753 12.1772346,4.48449383 L2.90335802,27.4382716 C2.85046914,27.5689383 2.72395062,27.654321 2.58291358,27.654321 L0.346024691,27.654321 C0.100938272,27.654321 -0.0663703704,27.4064691 0.0255802469,27.1790123 L10.9193086,0.216049383 C10.9721975,0.085382716 11.098716,0 11.2397531,0 L13.7269136,0 C13.8817778,0 14.0179753,0.103358025 14.0598025,0.252691358 L25.0399506,27.2156543 Z M79.5061728,27.654321 L77.4320988,27.654321 C77.241284,27.654321 77.0864198,27.4994568 77.0864198,27.308642 L77.0864198,0.345679012 C77.0864198,0.154864198 77.241284,0 77.4320988,0 L79.5061728,0 C79.6969877,0 79.8518519,0.154864198 79.8518519,0.345679012 L79.8518519,27.308642 C79.8518519,27.4994568 79.6969877,27.654321 79.5061728,27.654321 Z M69.0320988,27.2156543 C69.0936296,27.4361975 68.9277037,27.654321 68.6995556,27.654321 L66.405284,27.654321 C66.2645926,27.654321 66.1377284,27.5689383 66.0848395,27.4382716 L62.8202469,19.3580247 L53.6556049,19.3580247 C53.4105185,19.3580247 53.2432099,19.1098272 53.3351605,18.882716 L54.1730864,16.808642 C54.2259753,16.6779753 54.3524938,16.5925926 54.4935309,16.5925926 L61.7026667,16.5925926 L56.8102716,4.48449383 C56.6937778,4.19619753 56.2858765,4.19619753 56.1693827,4.48449383 L46.8955062,27.4382716 C46.8426173,27.5689383 46.7160988,27.654321 46.5750617,27.654321 L44.3381728,27.654321 C44.0930864,27.654321 43.9257778,27.4061235 44.0177284,27.1790123 L54.9114568,0.216049383 C54.9643457,0.085382716 55.0908642,0 55.2319012,0 L57.7190617,0 C57.8739259,0 58.0101235,0.103358025 58.0519506,0.252691358 L69.0320988,27.2156543 Z" id="Combined-Shape"></path>
            </g>
            <g id="Group" transform="translate(87.456790, 0.000000)">
                <path d="M9.88054321,14.0304198 L0.380938272,27.1053827 C0.215012346,27.3338765 0.37817284,27.654321 0.660592593,27.654321 L3.22414815,27.654321 C3.33476543,27.654321 3.43881481,27.6014321 3.50380247,27.5119012 L13.2986173,14.0304198 C13.3867654,13.9094321 13.3867654,13.7452346 13.2986173,13.6239012 L11.7371852,11.4748148 L3.50414815,0.142419753 C3.43916049,0.0528888889 3.33511111,0 3.22449383,0 L0.660938272,0 C0.378518519,0 0.215358025,0.320444444 0.381283951,0.548938272 L9.88088889,13.6239012 C9.96869136,13.7452346 9.96869136,13.9090864 9.88054321,14.0304198 Z" id="Path" fill="#656FFF"></path>
                <g transform="translate(13.481481, 0.000000)" fill="#F55E6E" id="Path">
                    <path d="M1.39446914,11.0897284 C1.53239506,11.2798519 1.81585185,11.2798519 1.95377778,11.0897284 L9.6122963,0.548592593 C9.7785679,0.320444444 9.61506173,0 9.33264198,0 L6.76908642,0 C6.65846914,0 6.55441975,0.0528888889 6.4894321,0.142419753 L0.112691358,8.91920988 C0.0245432099,9.04054321 0.0245432099,9.20439506 0.112691358,9.3257284 L1.39446914,11.0897284 Z"></path>
                    <path d="M1.95377778,16.5645926 C1.81585185,16.3744691 1.53239506,16.3744691 1.39446914,16.5645926 L0.112691358,18.3289383 C0.0245432099,18.4502716 0.0245432099,18.6141235 0.112691358,18.7354568 L6.4894321,27.5122469 C6.55441975,27.6017778 6.65846914,27.6546667 6.76908642,27.6546667 L9.33264198,27.6546667 C9.61506173,27.6546667 9.77822222,27.3342222 9.6122963,27.1057284 L1.95377778,16.5645926 Z"></path>
                </g>
            </g>
        </g>
    </g>
</svg>
