<svg xmlns="http://www.w3.org/2000/svg" width="100mm" height="100mm" viewBox="0 0 283.46 283.46"><title>CB-Logo</title><path d="M177,94.88a6.3,6.3,0,1,1,2.3-8.6,6.31,6.31,0,0,1-2.3,8.6m-4.32,7.36v11.47a12.84,12.84,0,0,0-10.3,18.65l-9.87,5.69a12.83,12.83,0,0,0-21.74.3l-9.88-5.71a12.8,12.8,0,0,0-10.8-19v-11.4a12.84,12.84,0,0,0,11-18.72l9.86-5.7a12.86,12.86,0,0,0,21.45.29l9.87,5.71a12.86,12.86,0,0,0,10.45,18.38M148,70.88a6.3,6.3,0,1,1-6.3-6.3,6.3,6.3,0,0,1,6.3,6.3m-33,21.7a6.3,6.3,0,1,1-2.3-8.61,6.29,6.29,0,0,1,2.3,8.61m0,30.79a6.3,6.3,0,1,1-8.6-2.3,6.3,6.3,0,0,1,8.6,2.3m20.37,21.7a6.3,6.3,0,1,1,6.3,6.3,6.3,6.3,0,0,1-6.3-6.3m33-21.7a6.3,6.3,0,1,1,2.31,8.61,6.31,6.31,0,0,1-2.31-8.61m30.07-48.15a6,6,0,0,0-8.22-2.2,5.93,5.93,0,0,0-2.43,7.54l-3.21,1.85a12.75,12.75,0,0,0-21.65.24l-9.91-5.72a12.75,12.75,0,0,0-10.62-18.87v-3.7a6,6,0,0,0,5.32-5.88,6,6,0,0,0-12,0A6,6,0,0,0,141,54.36v3.7a12.86,12.86,0,0,0-12.19,12.82,12.67,12.67,0,0,0,1.42,5.75l-9.93,5.74a12.76,12.76,0,0,0-21.47,0l-3.21-1.85A5.94,5.94,0,0,0,93.22,73,6,6,0,1,0,95,81.78l3.21,1.85a12.75,12.75,0,0,0,10.54,18.61v11.47a12.76,12.76,0,0,0-10.54,18.62L95,134.18a6,6,0,1,0,.7,1.21l3.21-1.85a12.85,12.85,0,0,0,17.19,4.14,12.67,12.67,0,0,0,4.12-3.84l9.94,5.74A12.77,12.77,0,0,0,141,157.89v3.7a6,6,0,0,0-5.32,5.88,6,6,0,0,0,12,0,6,6,0,0,0-5.32-5.88v-3.7a12.75,12.75,0,0,0,10.76-18.61l9.93-5.73a12.68,12.68,0,0,0,4.29,4.13,12.86,12.86,0,0,0,17.2-4.14l3.2,1.85a6,6,0,0,0,2.44,7.54,6,6,0,1,0-1.74-8.75l-3.2-1.85a12.76,12.76,0,0,0-11.22-18.64V102.26a12.75,12.75,0,0,0,11.22-18.63l3.2-1.85a6,6,0,0,0,10-6.56" style="fill:#fff"/><path d="M148,108a6.3,6.3,0,1,1-6.3-6.3A6.3,6.3,0,0,1,148,108m12.6,0a18.9,18.9,0,1,0-18.9,18.89A18.9,18.9,0,0,0,160.63,108" style="fill:#0089c4"/><path d="M267.91,220.94v-.08a5,5,0,0,1,.85-3.11,2.91,2.91,0,0,1,2.45-1.11,3,3,0,0,1,2.46,1.11,4.84,4.84,0,0,1,.88,3.11v.08Zm3.34,13.53a13.77,13.77,0,0,0,5.57-1,9.81,9.81,0,0,0,3.6-2.51,4.24,4.24,0,0,0,1.23-2.55.71.71,0,0,0-.27-.56,1,1,0,0,0-.65-.23h-5.47a1.86,1.86,0,0,0-.73.1,2.13,2.13,0,0,0-.61.53,5.44,5.44,0,0,1-1.15,1,2.91,2.91,0,0,1-1.6.4,2.77,2.77,0,0,1-2.38-1.15,5.26,5.26,0,0,1-.88-3v-.25h13.24a1.06,1.06,0,0,0,1.08-1.09v-1a12.94,12.94,0,0,0-1.23-5.74,9.08,9.08,0,0,0-3.72-4,11.91,11.91,0,0,0-6.07-1.44,10.93,10.93,0,0,0-7.9,2.8,10.74,10.74,0,0,0-3.09,7.76v1.3q.09,5.22,3,8t8,2.73m-26.31-6.56a3,3,0,0,1-2.84-1.35,7.43,7.43,0,0,1-.79-3.74l0-.92a5.33,5.33,0,0,1,.92-3.07,3.11,3.11,0,0,1,2.67-1.11,3.25,3.25,0,0,1,2.67,1.07,4.73,4.73,0,0,1,1,2.78,9.41,9.41,0,0,1,0,1.25,10.1,10.1,0,0,1,0,1.25,4.79,4.79,0,0,1-1,2.76,3.22,3.22,0,0,1-2.67,1.08m.33,15.33c3.48,0,6.18-.83,8.11-2.51s2.88-4.1,2.88-7.3v-20a1.06,1.06,0,0,0-.32-.77,1,1,0,0,0-.77-.31h-5.09a1,1,0,0,0-.76.31,1.12,1.12,0,0,0-.29.77v1.51a8,8,0,0,0-2.71-2.2,8.35,8.35,0,0,0-3.76-.81,8,8,0,0,0-6.66,2.88q-2.28,2.88-2.28,8l0,1.12q.21,4.77,2.45,7.21a8.3,8.3,0,0,0,6.45,2.44,8,8,0,0,0,6.05-2.3v2.8a4.22,4.22,0,0,1-.87,3,3.59,3.59,0,0,1-2.67.9,3.36,3.36,0,0,1-2.09-.53,3.62,3.62,0,0,1-1.09-1.44,1.6,1.6,0,0,0-.46-.64,1.07,1.07,0,0,0-.67-.19h-5.59a1.12,1.12,0,0,0-.75.29.9.9,0,0,0-.34.71,5.58,5.58,0,0,0,1.09,2.82,9.09,9.09,0,0,0,3.59,3,14.22,14.22,0,0,0,6.51,1.29m-26.76-14.57a3.12,3.12,0,0,1-2.7-1.11,5.81,5.81,0,0,1-.94-3.07l0-1.3,0-1.29a5.81,5.81,0,0,1,.94-3.07,3.12,3.12,0,0,1,2.7-1.11,3.29,3.29,0,0,1,2.65,1.07,4.42,4.42,0,0,1,1,2.69c.05.73.08,1.24.08,1.55s0,.81-.08,1.58a5.16,5.16,0,0,1-1,2.91,3.18,3.18,0,0,1-2.67,1.15m-2.43,5.8a7.89,7.89,0,0,0,6.48-2.76V233a1.06,1.06,0,0,0,1,1h5a1.06,1.06,0,0,0,.77-.29,1,1,0,0,0,.32-.75V205.45a1,1,0,0,0-.32-.76,1.1,1.1,0,0,0-.77-.29h-5.39a1.05,1.05,0,0,0-.73.29,1,1,0,0,0-.31.76v8.89a8,8,0,0,0-6.06-2.42,8.07,8.07,0,0,0-6.34,2.61,11,11,0,0,0-2.51,7.16l0,1.5,0,1.47c.11,3.14.94,5.57,2.48,7.26a8.18,8.18,0,0,0,6.37,2.55m-19.21-.42h5.22a1.08,1.08,0,0,0,.78-.29,1,1,0,0,0,.31-.75V213.38a1,1,0,0,0-.31-.75,1.08,1.08,0,0,0-.78-.29h-5.22a1,1,0,0,0-.73.29,1,1,0,0,0-.31.75V233a1.06,1.06,0,0,0,1,1m0-24.72h5.22a1.06,1.06,0,0,0,.78-.31,1.1,1.1,0,0,0,.31-.78v-3.88a1.08,1.08,0,0,0-1.09-1.09h-5.22a1,1,0,0,0-.73.32,1,1,0,0,0-.31.77v3.88a1.12,1.12,0,0,0,.29.78,1,1,0,0,0,.75.31m-19.25,24.72h5.51a1.08,1.08,0,0,0,.78-.29,1,1,0,0,0,.31-.75V222.48a3.52,3.52,0,0,1,.9-2.58,3.4,3.4,0,0,1,2.57-.92h4.21a1,1,0,0,0,.76-.32,1,1,0,0,0,.29-.73v-4.55a1,1,0,0,0-1-1H190a8.51,8.51,0,0,0-3.48.69,8,8,0,0,0-2.74,2v-1.59a1.06,1.06,0,0,0-1.08-1.08h-5.1a1,1,0,0,0-.75.31,1.07,1.07,0,0,0-.29.77V233a1.06,1.06,0,0,0,1,1m-22.26-5.63v-6.56H161a3.31,3.31,0,0,1,2.5.94,3.2,3.2,0,0,1,.92,2.36,3.27,3.27,0,0,1-.89,2.32,3.36,3.36,0,0,1-2.53.94Zm0-12v-5.93h5.22a3.26,3.26,0,0,1,2.4.81,2.85,2.85,0,0,1,.82,2.11,2.92,2.92,0,0,1-.84,2.17,3.2,3.2,0,0,1-2.38.84Zm-6.8,17.66h13.28q5.17,0,7.95-2.34a8.08,8.08,0,0,0,2.78-6.55,6.84,6.84,0,0,0-1.17-3.91,6.75,6.75,0,0,0-2.88-2.48,7,7,0,0,0,2.36-2.13,5.74,5.74,0,0,0,1.06-3.47,7.61,7.61,0,0,0-2.59-6.18q-2.58-2.18-7.89-2.17h-12.9a1,1,0,0,0-.76.31,1.12,1.12,0,0,0-.29.78V233a1,1,0,0,0,.32.73,1,1,0,0,0,.73.31" style="fill:#fff"/><path d="M131.85,229.21a3.05,3.05,0,0,1-2.55-1.07,5.93,5.93,0,0,1-1-3.27l0-1.68,0-1.67a6,6,0,0,1,1-3.25,3.53,3.53,0,0,1,5.1,0,5.8,5.8,0,0,1,1,3.25c0,.28,0,.84,0,1.67s0,1.4,0,1.68a5.77,5.77,0,0,1-1,3.27,3.05,3.05,0,0,1-2.55,1.07m0,5.26q5.27,0,8.08-2.44a9.46,9.46,0,0,0,3.07-7c.06-.72.09-1.35.09-1.88s0-1.15-.09-1.87a9.4,9.4,0,0,0-3.15-6.92c-1.94-1.65-4.6-2.48-8-2.48s-6.06.83-8,2.48a9.4,9.4,0,0,0-3.15,6.92c0,.36,0,1,0,1.87s0,1.52,0,1.88a9.46,9.46,0,0,0,3.07,7q2.82,2.44,8.08,2.44M113,234.05h4a1,1,0,0,0,.76-.31A1.05,1.05,0,0,0,118,233v-3.84a1.12,1.12,0,0,0-.29-.78,1,1,0,0,0-.76-.31h-3.29a2,2,0,0,1-1.76-.75,3.77,3.77,0,0,1-.54-2.21V218h5.22a1.08,1.08,0,0,0,.77-.3,1,1,0,0,0,.31-.75v-3.59a1,1,0,0,0-.31-.75,1.07,1.07,0,0,0-.77-.29h-5.22v-6.89a1,1,0,0,0-1-1h-5.13a1.05,1.05,0,0,0-.73.29,1,1,0,0,0-.32.76v6.89h-3.3a1,1,0,0,0-.73.29,1,1,0,0,0-.31.75V217a1,1,0,0,0,.31.73,1,1,0,0,0,.73.32h3.3v7.72q0,8.31,8.86,8.31m-26.65-5.38a3.27,3.27,0,0,1-2.65-1.07,4.42,4.42,0,0,1-1-2.69c0-.36,0-.88,0-1.55s0-1.22,0-1.58a5.16,5.16,0,0,1,1-2.91,3.18,3.18,0,0,1,2.67-1.15,3.13,3.13,0,0,1,2.7,1.11A5.81,5.81,0,0,1,90,221.9c0,.28,0,.71,0,1.29s0,1,0,1.3a5.81,5.81,0,0,1-.94,3.07,3.13,3.13,0,0,1-2.7,1.11M76.31,242H81.7a1,1,0,0,0,1-1.05v-9.23a7,7,0,0,0,6.06,2.76,8.1,8.1,0,0,0,6.34-2.59,10.8,10.8,0,0,0,2.51-7.1c0-.39,0-.92,0-1.59s0-1.18,0-1.54q-.16-4.68-2.49-7.2a8.17,8.17,0,0,0-6.36-2.53,7.67,7.67,0,0,0-6.48,3v-1.5a1,1,0,0,0-1-1h-5a1.06,1.06,0,0,0-.77.29,1,1,0,0,0-.32.75v27.56a1,1,0,0,0,.32.76,1.1,1.1,0,0,0,.77.29m-22.09,0h4.84a1.36,1.36,0,0,0,1.3-.88l11.82-27.35a1.92,1.92,0,0,0,.08-.55.83.83,0,0,0-.27-.6.89.89,0,0,0-.65-.27H66.41a1.34,1.34,0,0,0-1.25.87L60.4,225.07l-4.64-11.86a1.21,1.21,0,0,0-1.21-.87h-5a.87.87,0,0,0-.64.27,1.28,1.28,0,0,0-.36.69,1.56,1.56,0,0,0,.13.46l8,19-3.3,7.85a1.85,1.85,0,0,0-.08.54.85.85,0,0,0,.25.63.89.89,0,0,0,.63.25m-22.3-7.94h5.51a1.06,1.06,0,0,0,.77-.29,1,1,0,0,0,.32-.75V222.48a3.52,3.52,0,0,1,.89-2.58A3.41,3.41,0,0,1,42,219H46.2a1,1,0,0,0,.75-.32,1,1,0,0,0,.29-.73v-4.55a1,1,0,0,0-1-1H44.32a8.59,8.59,0,0,0-3.49.69,8,8,0,0,0-2.73,2v-1.59a1.06,1.06,0,0,0-.32-.77,1,1,0,0,0-.77-.31H31.92a1,1,0,0,0-.75.31,1.08,1.08,0,0,0-.3.77V233a1,1,0,0,0,.32.73,1,1,0,0,0,.73.31m-18,.42a17.3,17.3,0,0,0,6.66-1.21,10.81,10.81,0,0,0,4.66-3.51,9.22,9.22,0,0,0,1.79-5.43.8.8,0,0,0-.27-.62.9.9,0,0,0-.65-.25H20.22a1.33,1.33,0,0,0-.87.23,1.51,1.51,0,0,0-.46.85,4.77,4.77,0,0,1-1.78,2.84,5.47,5.47,0,0,1-3.15.84q-4.73,0-4.89-5.27c0-.8,0-2,0-3.55s0-2.71,0-3.46q.16-5.27,4.89-5.26a5.49,5.49,0,0,1,3.15.81,4.94,4.94,0,0,1,1.78,2.86,2,2,0,0,0,.48.86,1.31,1.31,0,0,0,.85.23h5.93a.94.94,0,0,0,.65-.25.83.83,0,0,0,.27-.63,9.22,9.22,0,0,0-1.79-5.43,10.81,10.81,0,0,0-4.66-3.51A17.49,17.49,0,0,0,14,204.4q-5.9,0-9.33,2.95T1,215.72c0,.78,0,2,0,3.76s0,2.92,0,3.67q.21,5.57,3.62,8.44T14,234.47" style="fill:#0089c4"/></svg>